<svg xmlns="http://www.w3.org/2000/svg" viewBox="0 0 800 470" width="800" height="470" font-family="Arial, sans-serif">
<rect width="800" height="470" fill="#FFFFFF"/>
<rect x="0" y="0" width="800" height="32" fill="#112E51"/>
<text x="16" y="21" fill="#FFFFFF" font-size="14" font-weight="bold">RAVEN Demo — Scene 6: Rate Limit / 429</text>
<rect x="20" y="50" width="760" height="400" fill="#F1F1F1" stroke="#5B616B" stroke-width="1"/>
<rect x="20" y="50" width="760" height="24" fill="#E1E1E1"/>
<circle cx="30" cy="62" r="4" fill="#FF5F57"/>
<circle cx="44" cy="62" r="4" fill="#FEBC2E"/>
<circle cx="58" cy="62" r="4" fill="#28C840"/>
<rect x="76" y="56" width="688" height="14" fill="#FFFFFF" rx="2"/>
<text x="84" y="66" fill="#5B616B" font-size="10">eligibility-demo.va.gov/lookup</text>
<text x="40" y="100" fill="#112E51" font-size="18" font-weight="bold">Rate Limit — 429 with Exponential Backoff</text>

<text x="40" y="140" fill="#112E51" font-size="12" font-weight="bold">Bulk lookup queue (5 ICNs submitted)</text>

<rect x="40" y="155" width="720" height="32" fill="#FFFFFF" stroke="#2E8540"/>
<text x="52" y="176" fill="#112E51" font-size="11">1013925208V123456</text>
<text x="700" y="176" fill="#2E8540" font-size="11" font-weight="bold">✓ Complete</text>

<rect x="40" y="190" width="720" height="32" fill="#FFFFFF" stroke="#2E8540"/>
<text x="52" y="211" fill="#112E51" font-size="11">1013925208V234567</text>
<text x="700" y="211" fill="#2E8540" font-size="11" font-weight="bold">✓ Complete</text>

<rect x="40" y="225" width="720" height="32" fill="#FFF8E1" stroke="#FDB81E"/>
<text x="52" y="246" fill="#112E51" font-size="11">1013925208V345678</text>
<text x="200" y="246" fill="#5B616B" font-size="10">HTTP 429 — waiting 2s (attempt 2/6)</text>
<rect x="450" y="234" width="200" height="14" fill="#F1F1F1"/>
<rect x="450" y="234" width="120" height="14" fill="#FDB81E"/>
<text x="700" y="246" fill="#FDB81E" font-size="11" font-weight="bold">⟳ Retry</text>

<rect x="40" y="260" width="720" height="32" fill="#F1F1F1" stroke="#5B616B"/>
<text x="52" y="281" fill="#5B616B" font-size="11">1013925208V456789</text>
<text x="700" y="281" fill="#5B616B" font-size="11">Queued</text>

<rect x="40" y="295" width="720" height="32" fill="#F1F1F1" stroke="#5B616B"/>
<text x="52" y="316" fill="#5B616B" font-size="11">1013925208V567890</text>
<text x="700" y="316" fill="#5B616B" font-size="11">Queued</text>

<text x="40" y="360" fill="#112E51" font-size="12" font-weight="bold">Backoff schedule: 1s → 2s → 4s → 8s → 16s (max 6 retries)</text>
<text x="40" y="380" fill="#5B616B" font-size="11">Zero requests dropped • Zero user-visible errors • Queue survives page refresh</text>
<text x="40" y="400" fill="#5B616B" font-size="10">Directly answers "what happens when Lighthouse throttles SQUARES at scale?"</text>

<circle cx="740" cy="70" r="8" fill="#FDB81E"/>
<text x="705" y="90" fill="#FDB81E" font-size="10" font-weight="bold">CHAOS: 429</text>

</svg>